inDegrees=no
num_controls=7
num_derivatives=13
num_iterations=43
num_multipliers=7
num_parameters=0
num_slacks=7
num_states=26
objective=0.424249
objective_accelerations=0.061439
objective_balance=0.001222
objective_effort=0.015986
objective_height=0.339766
objective_ligament=0.005837
solver_duration=665.692148
status=Solve_Succeeded
success=true
DataType=double
version=3
OpenSimVersion=4.5
endheader
time	/jointset/ground_pelvis/pelvis_tilt/value	/jointset/ground_pelvis/pelvis_tx/value	/jointset/ground_pelvis/pelvis_ty/value	/jointset/hip_l/hip_flexion_l/value	/jointset/hip_l/hip_adduction_l/value	/jointset/hip_l/hip_rotation_l/value	/jointset/back/lumbar_extension/value	/jointset/patellofemoral_l/patellar_flexion_l/value	/jointset/knee_l/knee_flexion_l/value	/jointset/knee_l/knee_adduction_l/value	/jointset/knee_l/knee_rotation_l/value	/jointset/ankle_l/ankle_angle_l/value	/jointset/subtalar_l/subtalar_angle_l/value	/jointset/ground_pelvis/pelvis_tilt/speed	/jointset/ground_pelvis/pelvis_tx/speed	/jointset/ground_pelvis/pelvis_ty/speed	/jointset/hip_l/hip_flexion_l/speed	/jointset/hip_l/hip_adduction_l/speed	/jointset/hip_l/hip_rotation_l/speed	/jointset/back/lumbar_extension/speed	/jointset/patellofemoral_l/patellar_flexion_l/speed	/jointset/knee_l/knee_flexion_l/speed	/jointset/knee_l/knee_adduction_l/speed	/jointset/knee_l/knee_rotation_l/speed	/jointset/ankle_l/ankle_angle_l/speed	/jointset/subtalar_l/subtalar_angle_l/speed	/forceset/tau_hip_flexion_l	/forceset/tau_hip_adduction_l	/forceset/tau_hip_rotation_l	/forceset/tau_knee_flexion_l	/forceset/tau_ankle_angle_l	/forceset/tau_subtalar_angle_l	/forceset/tau_lumbar_extension	lambda_cid13_p0	lambda_cid13_p1	lambda_cid13_p2	lambda_cid13_p3	lambda_cid13_p4	lambda_cid13_p5	lambda_cid14_p0	/jointset/ground_pelvis/pelvis_tilt/accel	/jointset/ground_pelvis/pelvis_tx/accel	/jointset/ground_pelvis/pelvis_ty/accel	/jointset/hip_l/hip_flexion_l/accel	/jointset/hip_l/hip_adduction_l/accel	/jointset/hip_l/hip_rotation_l/accel	/jointset/back/lumbar_extension/accel	/jointset/patellofemoral_l/patellar_flexion_l/accel	/jointset/knee_l/knee_flexion_l/accel	/jointset/knee_l/knee_adduction_l/accel	/jointset/knee_l/knee_rotation_l/accel	/jointset/ankle_l/ankle_angle_l/accel	/jointset/subtalar_l/subtalar_angle_l/accel	gamma_cid13_p0	gamma_cid13_p1	gamma_cid13_p2	gamma_cid13_p3	gamma_cid13_p4	gamma_cid13_p5	gamma_cid14_p0
1	-0.4681231001754928	-0.007707442405821966	0.5742800930267795	1.771102766702779	-0.3419854431608713	0.1289038158168476	-0.4361557725884885	1.558213322473893	1.558213322473998	0.09186513727127257	-0.174231594582455	0.4350757056930775	0.2570601026525389	-0.1418001216732612	0.0004809822455952766	0.03185721302549546	0.02854681560151728	0.0002890952696401198	-0.06165410436899926	-0.001829487288338349	-0.1447460736586691	-0.1447460736586736	0.004600387802180943	-0.0005366492832658962	-0.04356542927331687	-0.02610928797757755	-0.2461201841053048	0.08039283255511999	-0.0215002760985035	-0.2982418348307749	-0.01350882588897819	-0.01243173898978804	0.2125240338249169	-40.64086445158033	23.64787743136267	-16.76752364166797	4.529904290266177	-547.2077675807284	-30.09354015378362	-0.02356258335012641	1.373475304066932	0.210132491534255	2.130715436783694	-6.852981417543575	-0.2418617505346856	-1.467284000259348	-0.04553470085851322	-5.802358166475015	-5.802358166475011	-1.062254911290391	-0.05565607576724362	-0.8281266086138409	-0.8959700780985749	4.660823771108741e-09	-1.58319113917002e-07	-1.379157334005025e-07	-1.566883611715683e-08	-9.784198420952287e-09	-2.817617782416068e-07	2.183406602759482e-08
1.01	-0.4694730569900287	-0.007692100610563215	0.5747050239413325	1.771046494470956	-0.3419940665769099	0.128217411059726	-0.4361754534194653	1.556476108464933	1.556476108465094	0.09185534140328401	-0.1742381810130419	0.4345986067263654	0.2567551169532767	-0.1281761000658085	0.002596095955706384	0.0531230615983463	-0.03980381759178033	-0.002004793085135844	-0.07561530188514691	-0.002106213861921334	-0.2026976695729158	-0.2026976695729178	-0.006556897557461394	-0.0007722818020114541	-0.05186593998254612	-0.0348750737898651	-0.2465598867396226	0.08037813870993919	-0.02153783590887124	-0.297354953076965	-0.01383524178590508	-0.0123547147148683	0.2127664830099012	-40.70060345787946	23.57411433334855	-16.69777093929819	4.413769624854035	-547.0844531120397	-30.02720559393945	-0.02357777205441892	1.359138718285283	0.2135030724223498	2.123630501483649	-6.826485719899594	-0.2217751833055311	-1.35880163875661	-0.01867187727767843	-5.791707437432962	-5.791707437432708	-1.142070000910992	-0.006318049274400012	-0.8327573392625903	-0.8649088463777549	7.088153115778303e-09	-2.130483851213841e-07	-1.963282887757757e-07	-2.792899163306485e-08	-1.407169894492934e-08	-3.787541306787239e-07	2.951037914657046e-08
1.02	-0.4706863189626578	-0.007655347225869647	0.5753424355284046	1.770306639617241	-0.3420253534375679	0.1273917415251185	-0.4361978875644746	1.554159349070124	1.554159349070346	0.09173405175134884	-0.1742468840106663	0.434038153845138	0.2563628681931739	-0.1144611532902935	0.004763300132558082	0.07435334752921836	-0.1081697087721332	-0.004243593654142027	-0.08950705985986172	-0.002380150102235964	-0.2606551508285026	-0.2606551508285022	-0.01769836902151389	-0.0009599626946013501	-0.06023621217919024	-0.04356190014551015	-0.2469995893740275	0.08036344486461042	-0.0215753957188415	-0.2964680713231481	-0.01416165768284739	-0.01227769044020915	0.2130089321947764	-40.76203190340497	23.49679743544896	-16.62305405576775	4.288506629134772	-547.0631604243196	-29.97237317170014	-0.02359581637402883	1.391660337679446	0.2205505848823028	2.123602908387929	-6.856033014954592	-0.2308441933806779	-1.453396091972695	-0.04497663420408835	-5.803535234743033	-5.803535234743033	-1.059092132172456	-0.0460657505360312	-0.8420789060969478	-0.880178186770068	9.282226154728007e-09	-2.694351396075295e-07	-2.524751217708636e-07	-4.030847564887952e-08	-1.848345062275319e-08	-4.717837543632266e-07	3.623967601108602e-08
1.03	-0.4717619905391642	-0.007596620742489146	0.5761918788265723	1.768883270117305	-0.3420787106555593	0.1264273879426016	-0.4362228463772458	1.551263086190933	1.551263086191097	0.09150164568043763	-0.174257200089668	0.4333935661207001	0.2558841855660224	-0.1006592702782279	0.006994807283296176	0.09552018246185133	-0.176485370972337	-0.00641531706189631	-0.1033577882781795	-0.002591345184576127	-0.3185885288349569	-0.3185885288349548	-0.02876523151828596	-0.001093961315809601	-0.06870115360189123	-0.05215894898113737	-0.2473015548924525	0.08039160098271479	-0.02155959124677614	-0.2953308618024384	-0.01449926041957984	-0.01218987334376445	0.2131855635877375	-40.80428485293984	23.40005211216877	-16.53223736126202	4.142017329652163	-546.7767436800638	-29.89189545220259	-0.02361951495855513	1.376537995544388	0.2263617780484	2.11094973325506	-6.816507877289244	-0.2084094620349579	-1.350024865017049	-0.006150852985008708	-5.786913289988608	-5.786913289988457	-1.127848698927071	0.004242071405530099	-0.8516866023087387	-0.8470279671171689	1.147391902729282e-08	-3.258388071883867e-07	-3.085988351498271e-07	-5.268917730244833e-08	-2.289647016949384e-08	-5.647729420400496e-07	4.295930944443361e-08
1.04	-0.4726992261430432	-0.007515196988026329	0.577252535663578	1.766777308984396	-0.342153399717142	0.1253247043462274	-0.4362493091223479	1.547787754690398	1.547787754690512	0.09115909790662725	-0.1742685943570065	0.432663732013657	0.2553200205034822	-0.08677395876316413	0.009302754349020777	0.1165960552967364	-0.2446880353619682	-0.008509962372113558	-0.1171730626267279	-0.002680936576317118	-0.3764688750970933	-0.3764688750970895	-0.03972670963497262	-0.001175600364263586	-0.07728548870268567	-0.06065838722309034	-0.2476035204109725	0.08041975710070212	-0.02154378677431078	-0.294193652281717	-0.01483686315631879	-0.01210205624752331	0.2133621949805853	-40.84851824843867	23.2998593398987	-16.43653670743571	3.986890324742674	-546.5940862285128	-29.82372427247614	-0.0236461921488375	1.408346038279159	0.2358385678795265	2.105410488838344	-6.833433452840027	-0.2154285738732151	-1.446305278018731	-0.02065589608327899	-5.792928885879446	-5.792928885879446	-1.038015256155415	-0.03559383598508543	-0.8659576417157866	-0.8606560680352089	1.296285216435908e-08	-3.764398894578794e-07	-3.553130821449006e-07	-6.339192572079487e-08	-2.723801329228997e-08	-6.399130050667384e-07	4.774538885048817e-08
1.05	-0.4734971643442595	-0.007410262072082821	0.5785234082663265	1.763990045455518	-0.3422486277349169	0.1240839610676164	-0.4362758678124365	1.543733992334552	1.543733992334568	0.09070763290516998	-0.1742805425488753	0.4318474017707351	0.2546713719286037	-0.07279761369131085	0.01170196039449875	0.1375546141709426	-0.3127302192026051	-0.01052127963617697	-0.1309660057582404	-0.002590872858710176	-0.4342640862740648	-0.4342640862740621	-0.05054501189460788	-0.001205194022255901	-0.08600583312421375	-0.0690539945314852	-0.2477889432907016	0.08049591750376386	-0.02147604150554273	-0.292798204478948	-0.01518698514406299	-0.01200804994982243	0.2134922079656333	-40.87515509027929	23.18316512073132	-16.32594667675332	3.803758676762374	-546.1579289584482	-29.72369772995168	-0.02367812672885294	1.394690730472579	0.2446064398538292	2.087494565077277	-6.784441400918563	-0.1917669381881761	-1.344344377618997	0.02982679601780281	-5.769901305865574	-5.769901305865828	-1.100557899318498	0.01457450431007161	-0.8788794379383007	-0.8262969529129714	1.442982405969101e-08	-4.26859640936392e-07	-4.017332833154776e-07	-7.404223810054074e-08	-3.157732277683783e-08	-7.144952829481107e-07	5.247104469318984e-08
